
		<svg xmlns="http://www.w3.org/2000/svg" xmlns:xlink="http://www.w3.org/1999/xlink" version="1.1" width="3205.4794520547944" height="2023.972602739726">
			
			<g transform="scale(10.273972602739725) translate(10, 10)">
				<defs id="SvgjsDefs1905"/><g id="main_text" rel="mainfill" name="main_text" feature="main_text" xmlns:name="mainText_mainfill" groupName="main_text" fill="#000" transform="translate(-1.1114483871482685, 117.95233280003139) scale(1.457790749951383)"><path d="M12.525 19.0169 c0.15254 0 0.18678 0.034395 0.18678 0.18693 l0 2.6949 c0 0.084746 -0.067797 0.18644 -0.16966 0.28814 c-1.2542 1.2034 -2.7966 1.932 -4.8305 1.932 c-3.8305 0 -6.9492 -3.0337 -6.9492 -6.8812 s3.1186 -6.9153 6.9492 -6.9153 c1.8983 0 3.6102 0.71186 4.8644 1.9153 c0.15254 0.15254 0.18644 0.25424 0.10169 0.32203 l-0.40678 0.33898 c-0.08458 0.084746 -0.15238 0.10153 -0.27102 -0.017115 c-0.72915 -0.72881 -2.2376 -1.7288 -4.1359 -1.7288 c-4.1864 0 -6.2542 3.3559 -6.2542 6.0847 c0 2.7625 2.0678 6.0507 6.2542 6.0507 c1.8305 0 3.2203 -0.89831 4 -1.6271 l0 -1.8476 l-3.9661 0 c-0.13559 0 -0.18644 -0.033898 -0.18644 -0.15254 l0 -0.47458 c0 -0.13559 0.050847 -0.16949 0.16949 -0.16949 l4.6441 0 z M19.847274576271186 16.1697 c0.11881 0.067797 0.11848 0.11881 0.08458 0.20356 l-0.30508 0.44068 c-0.050847 0.067797 -0.11848 0.067797 -0.20322 0.033898 c-0.57627 -0.33898 -1.0169 -0.54237 -1.6949 -0.54237 c-0.64407 0 -1.5254 0.28814 -2.322 1.3559 l0 6.1524 c0 0.11881 -0.050847 0.18644 -0.13559 0.18644 l-0.54237 0 c-0.10169 0 -0.13559 -0.067631 -0.13559 -0.18644 l0 -8.0508 c0 -0.084746 0.050847 -0.15254 0.13559 -0.15254 l0.42373 0 c0.15254 0 0.25424 0.16949 0.25424 0.28814 l0 0.79661 c0.81356 -0.84746 1.6949 -1.1525 2.4915 -1.1525 c0.86441 0 1.5593 0.35593 1.9492 0.62712 z M28.610184745762712 20.2712 c0.35593 0 0.62695 -0.084746 0.62695 -0.61017 c0 -2.2542 -1.7458 -4.1695 -4.1186 -4.1695 c-2.339 0 -4.1524 1.8983 -4.1524 4.3051 c0 2.4744 1.8983 4.3047 4.2712 4.3047 c1.4915 0 2.661 -0.77932 3.4237 -1.7793 c0.084746 -0.10169 0.067797 -0.15254 0 -0.23729 l-0.16949 -0.18644 c-0.067797 -0.084746 -0.15254 -0.067797 -0.25424 0.016949 c-0.71186 0.83051 -1.678 1.4407 -2.9492 1.4407 c-2.1525 0 -3.322 -1.6102 -3.4576 -3.0847 l6.7797 0 z M21.81338474576271 19.5763 c0.016949 -1.3898 1.0169 -3.322 3.2881 -3.322 c2.2881 0 3.2881 2.0169 3.3051 3.322 l-6.5932 0 z M38.20340508474577 20.2712 c0.35593 0 0.62695 -0.084746 0.62695 -0.61017 c0 -2.2542 -1.7458 -4.1695 -4.1186 -4.1695 c-2.339 0 -4.1524 1.8983 -4.1524 4.3051 c0 2.4744 1.8983 4.3047 4.2712 4.3047 c1.4915 0 2.661 -0.77932 3.4237 -1.7793 c0.084746 -0.10169 0.067797 -0.15254 0 -0.23729 l-0.16949 -0.18644 c-0.067797 -0.084746 -0.15254 -0.067797 -0.25424 0.016949 c-0.71186 0.83051 -1.678 1.4407 -2.9492 1.4407 c-2.1525 0 -3.322 -1.6102 -3.4576 -3.0847 l6.7797 0 z M31.406605084745763 19.5763 c0.016949 -1.3898 1.0169 -3.322 3.2881 -3.322 c2.2881 0 3.2881 2.0169 3.3051 3.322 l-6.5932 0 z M47.13562542372882 23.77983 c0.10169 0.10169 0.050847 0.22034 -0.084746 0.22034 l-0.67797 0 c-0.10169 0 -0.16949 -0.033732 -0.23729 -0.10153 l-4.7627 -4.1017 l0 4.0168 c0 0.13559 -0.050847 0.18644 -0.18644 0.18644 l-0.45763 0 c-0.13559 0 -0.16949 -0.050847 -0.16949 -0.18644 l0 -12.339 c0 -0.50847 -0.033898 -0.67797 -0.050847 -0.83051 c0 -0.11864 0.016949 -0.20339 0.13559 -0.20339 l0.45763 0 c0.18644 0 0.27119 0.11864 0.27119 0.27119 l0 8.8814 l4.2542 -3.8983 c0.084746 -0.067797 0.13559 -0.084746 0.22034 -0.084746 l0.66102 0 c0.13559 0 0.16949 0.13559 0.084746 0.22034 l-4.2881 3.8814 z M55.864406779661024 24.11864 c3.8475 0 6.9492 -3.0168 6.9492 -6.8981 c0 -3.8475 -3.1017 -6.8983 -6.9492 -6.8983 c-3.8647 0 -6.9834 3.0508 -6.9834 6.8983 c0 3.8814 3.1186 6.8981 6.9834 6.8981 z M55.864406779661024 23.28831 c-3.3729 0 -6.1356 -2.6947 -6.1356 -6.0676 c0 -3.3898 2.7627 -6.0678 6.1356 -6.0678 c3.3558 0 6.1015 2.678 6.1015 6.0678 c0 3.3729 -2.7458 6.0676 -6.1015 6.0676 z M65.74580847457628 10.441 l-0.47458 0.00016552 c-0.13559 0 -0.16949 0.050847 -0.16949 0.16949 l0 13.085 c0 0.20339 0.084746 0.30492 0.28814 0.30492 l0.37288 0 c0.11864 0 0.15254 -0.050847 0.15254 -0.18644 l0 -13.203 c0 -0.11864 -0.050847 -0.16949 -0.16949 -0.16949 z M68.86419152542373 11.509 c-0.28814 0 -0.50831 -0.22034 -0.50831 -0.50847 c0 -0.27102 0.22017 -0.49136 0.50831 -0.49136 c0.27119 0 0.49153 0.22034 0.49153 0.49136 c0 0.28814 -0.22034 0.50847 -0.49153 0.50847 z M69.10149152542374 15.6103 l-0.47441 0.00016552 c-0.13559 0 -0.16949 0.050847 -0.16949 0.16949 l0 7.9322 c0 0.18644 0.084746 0.28797 0.25407 0.28797 l0.42373 0 c0.10169 0 0.13559 -0.050847 0.13559 -0.16949 l0 -8.0508 c0 -0.11864 -0.050847 -0.16949 -0.16949 -0.16949 z M79.59317288135594 15.6102 l-0.62762 0 c-0.084746 0 -0.11848 0.016949 -0.15238 0.10169 l-3.4576 7.0508 l-3.4746 -7.0508 c-0.033732 -0.084746 -0.067631 -0.10169 -0.15221 -0.10169 l-0.66102 0 c-0.067797 0 -0.11864 0.016949 -0.084746 0.10169 l4.1186 8.2712 c0.050847 0.067631 0.10169 0.11848 0.18644 0.11848 l0.15254 0 c0.067797 0 0.13559 -0.050847 0.16949 -0.11848 l4.0847 -8.2712 c0.033898 -0.067797 -0.033898 -0.10169 -0.10169 -0.10169 z M88.44069322033899 20.2712 c0.35593 0 0.62695 -0.084746 0.62695 -0.61017 c0 -2.2542 -1.7458 -4.1695 -4.1186 -4.1695 c-2.339 0 -4.1524 1.8983 -4.1524 4.3051 c0 2.4744 1.8983 4.3047 4.2712 4.3047 c1.4915 0 2.661 -0.77932 3.4237 -1.7793 c0.084746 -0.10169 0.067797 -0.15254 0 -0.23729 l-0.16949 -0.18644 c-0.067797 -0.084746 -0.15254 -0.067797 -0.25424 0.016949 c-0.71186 0.83051 -1.678 1.4407 -2.9492 1.4407 c-2.1525 0 -3.322 -1.6102 -3.4576 -3.0847 l6.7797 0 z M81.643893220339 19.5763 c0.016949 -1.3898 1.0169 -3.322 3.2881 -3.322 c2.2881 0 3.2881 2.0169 3.3051 3.322 l-6.5932 0 z  M99.89814576271186 10.441 c4.7119 0 6.8814 3.3731 6.8814 6.6951 c0 3.3729 -2.1864 6.8642 -6.8305 6.8642 l-4.6949 0 c-0.10169 0 -0.15254 -0.050847 -0.15254 -0.15254 l0 -13.237 c0 -0.11864 0.033898 -0.16949 0.16949 -0.16949 l4.6271 0 z M100.05064576271187 23.18678 c3.8814 0 5.9153 -3.0508 5.8814 -6.0678 c0 -2.9831 -1.9661 -5.8644 -5.8814 -5.8644 l-4.1186 0 l0.033898 11.932 l4.0847 0 z M116.01696440677965 20.2712 c0.35593 0 0.62695 -0.084746 0.62695 -0.61017 c0 -2.2542 -1.7458 -4.1695 -4.1186 -4.1695 c-2.339 0 -4.1524 1.8983 -4.1524 4.3051 c0 2.4744 1.8983 4.3047 4.2712 4.3047 c1.4915 0 2.661 -0.77932 3.4237 -1.7793 c0.084746 -0.10169 0.067797 -0.15254 0 -0.23729 l-0.16949 -0.18644 c-0.067797 -0.084746 -0.15254 -0.067797 -0.25424 0.016949 c-0.71186 0.83051 -1.678 1.4407 -2.9492 1.4407 c-2.1525 0 -3.322 -1.6102 -3.4576 -3.0847 l6.7797 0 z M109.22016440677966 19.5763 c0.016949 -1.3898 1.0169 -3.322 3.2881 -3.322 c2.2881 0 3.2881 2.0169 3.3051 3.322 l-6.5932 0 z M126.3558847457627 15.6102 l-0.62762 0 c-0.084746 0 -0.11848 0.016949 -0.15238 0.10169 l-3.4576 7.0508 l-3.4746 -7.0508 c-0.033732 -0.084746 -0.067631 -0.10169 -0.15221 -0.10169 l-0.66102 0 c-0.067797 0 -0.11864 0.016949 -0.084746 0.10169 l4.1186 8.2712 c0.050847 0.067631 0.10169 0.11848 0.18644 0.11848 l0.15254 0 c0.067797 0 0.13559 -0.050847 0.16949 -0.11848 l4.0847 -8.2712 c0.033898 -0.067797 -0.033898 -0.10169 -0.10169 -0.10169 z M135.20340508474575 20.2712 c0.35593 0 0.62695 -0.084746 0.62695 -0.61017 c0 -2.2542 -1.7458 -4.1695 -4.1186 -4.1695 c-2.339 0 -4.1524 1.8983 -4.1524 4.3051 c0 2.4744 1.8983 4.3047 4.2712 4.3047 c1.4915 0 2.661 -0.77932 3.4237 -1.7793 c0.084746 -0.10169 0.067797 -0.15254 0 -0.23729 l-0.16949 -0.18644 c-0.067797 -0.084746 -0.15254 -0.067797 -0.25424 0.016949 c-0.71186 0.83051 -1.678 1.4407 -2.9492 1.4407 c-2.1525 0 -3.322 -1.6102 -3.4576 -3.0847 l6.7797 0 z M128.40660508474573 19.5763 c0.016949 -1.3898 1.0169 -3.322 3.2881 -3.322 c2.2881 0 3.2881 2.0169 3.3051 3.322 l-6.5932 0 z M138.4068254237288 10.441 l-0.47458 0.00016552 c-0.13559 0 -0.16949 0.050847 -0.16949 0.16949 l0 13.085 c0 0.20339 0.084746 0.30492 0.28814 0.30492 l0.37288 0 c0.11864 0 0.15254 -0.050847 0.15254 -0.18644 l0 -13.203 c0 -0.11864 -0.050847 -0.16949 -0.16949 -0.16949 z M144.86420847457626 24.10153 c2.3559 0 4.322 -1.8812 4.322 -4.288 c0 -2.4576 -1.9661 -4.339 -4.322 -4.339 c-2.3898 0 -4.3559 1.8814 -4.3559 4.339 c0 2.4068 1.9661 4.288 4.3559 4.288 z M144.86420847457626 23.3222 c-2.0169 0 -3.5254 -1.678 -3.5254 -3.5085 c0 -1.8812 1.5085 -3.5592 3.5254 -3.5592 c1.9831 0 3.4915 1.678 3.4915 3.5592 c0 1.8305 -1.5085 3.5085 -3.4915 3.5085 z M154.64410677966097 15.5256 c2.0339 0 3.9322 1.6439 3.9322 4.2202 c0 2.4068 -1.4746 4.3558 -3.8814 4.3558 c-1.1186 0 -2.2034 -0.45729 -2.9492 -1.0675 l0 5.61 c0 0.23729 -0.18644 0.33898 -0.37288 0.33898 l-0.30525 0 c-0.08458 0 -0.13543 -0.050847 -0.13543 -0.13559 l0 -12.169 c0 -0.33898 -0.033898 -0.59322 -0.050847 -0.86441 c0 -0.11864 0.016949 -0.20339 0.13559 -0.20339 l0.45763 0 c0.18644 0 0.27119 0.11881 0.27119 0.27119 l0 0.55932 c0.64407 -0.45763 1.5253 -0.91525 2.8983 -0.91525 z M154.55930677966097 23.33881 c1.8983 0 3.2203 -1.4915 3.2203 -3.5932 c0 -2.322 -1.712 -3.4576 -3.2712 -3.4576 c-1.0847 0 -2 0.40678 -2.7627 0.98305 l0 5.0169 c0.71186 0.54237 1.6271 1.0508 2.8136 1.0508 z M175.2707288135593 23.77983 c0 0.13559 -0.017115 0.22 -0.13576 0.22 l-0.42373 0 c-0.20339 0 -0.27119 -0.11864 -0.27119 -0.30508 l0 -4.8981 c0 -1.4068 -0.88136 -2.5424 -2.661 -2.5424 c-1.5085 0 -2.6271 0.83051 -3.5424 1.7627 c0.033898 0.20339 0.050847 0.40678 0.050847 0.64424 l0 3.8303 c0 0.44085 0.016949 0.88153 0.033898 1.2883 c0 0.13559 -0.016949 0.22017 -0.13559 0.22017 l-0.42373 0 c-0.20339 0 -0.27119 -0.11864 -0.27119 -0.30508 l0 -4.8981 c0 -1.4068 -0.88119 -2.5424 -2.661 -2.5424 c-1.4914 0 -2.5761 0.79661 -3.4914 1.6949 l0 5.8644 c0 0.11881 -0.050847 0.18644 -0.13559 0.18644 l-0.54237 0 c-0.10169 0 -0.13559 -0.067631 -0.13559 -0.18644 l0 -8.0508 c0 -0.084746 0.050847 -0.15254 0.13559 -0.15254 l0.42373 0 c0.15254 0 0.25424 0.16949 0.25424 0.28814 l0 1.1525 c0.76271 -0.71186 1.9322 -1.5593 3.5254 -1.5593 c1.339 0 2.6269 0.57627 3.1525 1.8136 c0.76271 -0.74576 2 -1.8136 3.7797 -1.8136 s3.4407 1 3.4407 3.1695 l0 3.8303 c0 0.44085 0.016949 0.88153 0.033898 1.2883 z M184.42374406779658 20.2712 c0.35593 0 0.62695 -0.084746 0.62695 -0.61017 c0 -2.2542 -1.7458 -4.1695 -4.1186 -4.1695 c-2.339 0 -4.1524 1.8983 -4.1524 4.3051 c0 2.4744 1.8983 4.3047 4.2712 4.3047 c1.4915 0 2.661 -0.77932 3.4237 -1.7793 c0.084746 -0.10169 0.067797 -0.15254 0 -0.23729 l-0.16949 -0.18644 c-0.067797 -0.084746 -0.15254 -0.067797 -0.25424 0.016949 c-0.71186 0.83051 -1.678 1.4407 -2.9492 1.4407 c-2.1525 0 -3.322 -1.6102 -3.4576 -3.0847 l6.7797 0 z M177.62694406779656 19.5763 c0.016949 -1.3898 1.0169 -3.322 3.2881 -3.322 c2.2881 0 3.2881 2.0169 3.3051 3.322 l-6.5932 0 z M194.52526440677963 23.77983 c0 0.13559 -0.017115 0.22017 -0.13576 0.22017 l-0.42373 0 c-0.20339 0 -0.27119 -0.11864 -0.27119 -0.30508 l0 -4.8981 c0 -1.4578 -0.84746 -2.5425 -2.6608 -2.5425 c-1.4915 0 -2.5763 0.76271 -3.4915 1.661 l0 5.8983 c0 0.11881 -0.050847 0.18644 -0.13559 0.18644 l-0.54237 0 c-0.10169 0 -0.13559 -0.067631 -0.13559 -0.18644 l0 -8.0508 c0 -0.084746 0.050847 -0.15254 0.13559 -0.15254 l0.42373 0 c0.15254 0 0.25424 0.16949 0.25424 0.28814 l0 1.1525 c0.76271 -0.71186 1.9322 -1.5593 3.5254 -1.5593 c1.7458 0 3.4237 0.9661 3.4237 3.1525 l0 3.8475 c0 0.44085 0.016949 0.88153 0.033898 1.2883 z M200.94918135593218 23.52559 c0.050847 0.11864 -0.051014 0.16916 -0.16983 0.23695 c-0.33898 0.15254 -0.88119 0.32186 -1.5422 0.32186 c-1.7119 0 -1.9492 -1.1015 -1.9492 -3.1185 l0 -4.5763 l-1.0847 0 c-0.10169 0 -0.15254 -0.033898 -0.15254 -0.13559 l0 -0.20339 c0 -0.084746 0.016949 -0.15254 0.11864 -0.16949 c1.0678 -0.25424 1.3051 -0.49153 1.5085 -2.7627 c0.016949 -0.084746 0.033732 -0.15254 0.10153 -0.15254 l0.23745 0 c0.084746 0 0.10169 0.050847 0.10169 0.15254 l0 2.4915 l2.3559 0 c0.084746 0 0.16933 0.050847 0.16933 0.15254 l0 0.49153 c0 0.084746 -0.08458 0.13559 -0.16933 0.13559 l-2.0339 0 c-0.13543 0 -0.25407 -0.016949 -0.33881 -0.050847 l0 4.4578 c0 1.5932 0.016949 2.5085 1.2034 2.5085 c0.64407 0 0.9322 -0.084746 1.2373 -0.18644 c0.15254 -0.050847 0.27119 -0.067797 0.30492 0.033898 z"/></g><g id="slogan_text" rel="mainfill" name="slogan_text" feature="slogan_text" xmlns:name="sloganText_mainfill" groupName="slogan_text" fill="#000" transform="translate(53.73387504390037, 164.3781784211747) scale(0.4928238100018794)"><path d="M4.3 20 l0 -12.48 l-3.76 0 l0 -1.76 l9.32 0 l0 1.76 l-3.76 0 l0 12.48 l-1.8 0 z M18.92 11.9 l0 -1.06 l1.72 0 l0 9.16 l-1.72 0 l0 -1.06 c-0.86 0.72 -1.94 1.26 -3.08 1.26 c-1.28 0 -2.48 -0.48 -3.4 -1.38 c-0.9 -0.92 -1.4 -2.12 -1.4 -3.4 s0.5 -2.48 1.4 -3.4 c0.92 -0.9 2.12 -1.38 3.4 -1.38 c1.14 0 2.22 0.54 3.08 1.26 z M15.84 18.52 c1.7 0 3.08 -1.4 3.08 -3.1 s-1.38 -3.1 -3.08 -3.1 s-3.08 1.4 -3.08 3.1 s1.38 3.1 3.08 3.1 z M27.080000000000002 14.16 l4.24 5.84 l-2.18 0 l-3.36 -4.64 l-1.58 1.48 l0 3.16 l-1.72 0 l0 -14.68 l1.72 0 l0 9.22 l3.98 -3.7 l2.46 0 z M33.96 9.36 c-0.64 0 -1.14 -0.52 -1.14 -1.14 s0.5 -1.12 1.14 -1.12 c0.62 0 1.12 0.5 1.12 1.12 s-0.5 1.14 -1.12 1.14 z M33.1 20 l0 -9.16 l1.72 0 l0 9.16 l-1.72 0 z M44.980000000000004 11.94 c0.82 0.84 1.28 1.94 1.28 3.14 l0 4.92 l-1.72 0 l0 -4.92 c0 -1.5 -1.2 -2.74 -2.7 -2.74 c-1.48 0 -2.7 1.24 -2.7 2.74 l0 4.92 l-1.72 0 l0 -9.16 l1.72 0 l0 0.88 c0.78 -0.6 1.72 -1.06 2.7 -1.06 c1.18 0 2.3 0.44 3.14 1.28 z M55.7 10.84 l1.72 0 l0 9.6 c0 1.28 -0.5 2.5 -1.42 3.4 c-0.9 0.9 -2.1 1.4 -3.38 1.4 c-0.96 0 -1.84 -0.26 -2.58 -0.7 c-0.3 -0.18 -0.6 -0.42 -0.86 -0.66 l1.3 -1.14 c0.58 0.46 1.4 0.78 2.14 0.82 c1.7 0 3.08 -1.42 3.08 -3.12 l0 -1.5 c-0.86 0.72 -1.94 1.26 -3.08 1.26 c-1.28 0 -2.48 -0.48 -3.4 -1.38 c-0.9 -0.92 -1.4 -2.12 -1.4 -3.4 s0.5 -2.48 1.4 -3.4 c0.92 -0.9 2.12 -1.38 3.4 -1.38 c1.14 0 2.22 0.54 3.08 1.26 l0 -1.06 z M52.620000000000005 18.52 c1.7 0 3.08 -1.4 3.08 -3.1 s-1.38 -3.1 -3.08 -3.1 s-3.08 1.4 -3.08 3.1 s1.38 3.1 3.08 3.1 z  M72.64 10.84 l-5.84 14.4 l-1.86 0 l2.14 -5.24 l-3.72 -9.16 l1.86 0 l2.78 6.88 l2.78 -6.88 l1.86 0 z M81.9 12.02 c0.92 0.92 1.42 2.12 1.42 3.4 s-0.5 2.48 -1.42 3.4 c-0.9 0.9 -2.1 1.4 -3.38 1.4 s-2.48 -0.5 -3.4 -1.4 c-0.9 -0.92 -1.4 -2.12 -1.4 -3.4 s0.5 -2.48 1.4 -3.4 c0.92 -0.9 2.12 -1.38 3.4 -1.38 s2.48 0.48 3.38 1.38 z M78.52 18.5 c1.7 0 3.08 -1.38 3.08 -3.08 s-1.38 -3.06 -3.08 -3.06 s-3.08 1.36 -3.08 3.06 s1.38 3.08 3.08 3.08 z M86.46000000000001 19.02 c-0.8 -0.78 -1.24 -1.82 -1.24 -2.94 l0 -5.24 l1.72 0 l0 5.24 c0 1.34 1.12 2.44 2.52 2.44 c1.38 0 2.52 -1.1 2.52 -2.44 l0 -5.24 l1.72 0 l0 5.24 c0 1.12 -0.46 2.16 -1.26 2.94 s-1.86 1.18 -2.98 1.18 c-1.14 0 -2.2 -0.4 -3 -1.18 z M97.92 10.84 l0 0.94 c0.58 -0.64 2.28 -1.14 3.34 -1.14 l-0.42 1.72 c-1.6 0 -2.92 1.22 -2.92 2.76 l0 4.88 l-1.72 0 l0 -9.16 l1.72 0 z  M113.2 15.9 c0.28 0.4 0.42 0.88 0.42 1.4 s-0.14 1.02 -0.44 1.44 c-0.28 0.42 -0.68 0.74 -1.22 1 c-0.48 0.22 -1.06 0.34 -1.64 0.34 c-0.32 0 -0.62 -0.04 -0.94 -0.1 c-1 -0.2 -1.94 -0.64 -2.74 -1.32 l1.08 -1.18 c1.06 0.9 1.96 1.08 2.52 1.08 c0.38 0 0.74 -0.08 1.06 -0.22 c0.26 -0.12 0.72 -0.42 0.72 -1.04 s-0.54 -1 -1.78 -1.22 c-0.06 -0.02 -1.58 -0.3 -2.14 -0.62 c-0.84 -0.48 -1.28 -1.22 -1.28 -2.14 c0 -0.5 0.16 -0.98 0.44 -1.4 c0.26 -0.36 0.62 -0.64 1.14 -0.88 c0.48 -0.22 1 -0.34 1.58 -0.34 c0.22 0 0.46 0.02 0.68 0.04 c0.88 0.14 1.74 0.52 2.46 1.1 l-1 1.16 c-0.9 -0.7 -1.68 -0.8 -2.06 -0.8 c-0.36 0 -0.7 0.06 -0.98 0.2 c-0.4 0.2 -0.66 0.56 -0.66 0.92 c0 0.6 0.48 0.92 1.7 1.18 c0.02 0 1.66 0.36 2.12 0.62 c0.54 0.28 0.74 0.5 0.96 0.78 z M129.9 11.94 c0.84 0.84 1.3 1.94 1.3 3.14 l0 4.92 l-1.72 0 l0 -4.92 c0 -1.5 -1.22 -2.74 -2.7 -2.74 c-1.5 0 -2.72 1.24 -2.72 2.74 l0 4.92 l-1.72 0 l0 -4.92 c0 -1.5 -1.2 -2.74 -2.7 -2.74 c-1.48 0 -2.7 1.24 -2.7 2.74 l0 4.92 l-1.72 0 l0 -9.16 l1.72 0 l0 0.88 c0.78 -0.6 1.72 -1.06 2.7 -1.06 c1.18 0 2.3 0.52 3.14 1.36 c0.16 0.16 0.3 0.32 0.42 0.5 c0.14 -0.18 0.28 -0.34 0.44 -0.5 c0.84 -0.84 1.96 -1.36 3.14 -1.36 s2.28 0.44 3.12 1.28 z M140.64000000000001 11.9 l0 -1.06 l1.72 0 l0 9.16 l-1.72 0 l0 -1.06 c-0.86 0.72 -1.94 1.26 -3.08 1.26 c-1.28 0 -2.48 -0.48 -3.4 -1.38 c-0.9 -0.92 -1.4 -2.12 -1.4 -3.4 s0.5 -2.48 1.4 -3.4 c0.92 -0.9 2.12 -1.38 3.4 -1.38 c1.14 0 2.22 0.54 3.08 1.26 z M137.56 18.52 c1.7 0 3.08 -1.4 3.08 -3.1 s-1.38 -3.1 -3.08 -3.1 s-3.08 1.4 -3.08 3.1 s1.38 3.1 3.08 3.1 z M146.1 20 l-1.72 0 l0 -14.68 l1.72 0 l0 14.68 z M150.22 20 l-1.72 0 l0 -14.68 l1.72 0 l0 14.68 z  M165.6 12.02 c0.92 0.92 1.42 2.12 1.42 3.4 s-0.5 2.48 -1.42 3.4 c-0.9 0.9 -2.1 1.38 -3.38 1.38 c-1.14 0 -2.22 -0.54 -3.08 -1.26 l0 1.06 l-1.72 0 l0 -14.68 l1.72 0 l0 6.58 c0.86 -0.72 1.94 -1.26 3.08 -1.26 c1.28 0 2.48 0.48 3.38 1.38 z M162.22 18.52 c1.7 0 3.08 -1.4 3.08 -3.1 s-1.38 -3.1 -3.08 -3.1 s-3.08 1.4 -3.08 3.1 s1.38 3.1 3.08 3.1 z M170.1 19.02 c-0.8 -0.78 -1.24 -1.82 -1.24 -2.94 l0 -5.24 l1.72 0 l0 5.24 c0 1.34 1.12 2.44 2.52 2.44 c1.38 0 2.52 -1.1 2.52 -2.44 l0 -5.24 l1.72 0 l0 5.24 c0 1.12 -0.46 2.16 -1.26 2.94 s-1.86 1.18 -2.98 1.18 c-1.14 0 -2.2 -0.4 -3 -1.18 z M185.7 15.9 c0.28 0.4 0.42 0.88 0.42 1.4 s-0.14 1.02 -0.44 1.44 c-0.28 0.42 -0.68 0.74 -1.22 1 c-0.48 0.22 -1.06 0.34 -1.64 0.34 c-0.32 0 -0.62 -0.04 -0.94 -0.1 c-1 -0.2 -1.94 -0.64 -2.74 -1.32 l1.08 -1.18 c1.06 0.9 1.96 1.08 2.52 1.08 c0.38 0 0.74 -0.08 1.06 -0.22 c0.26 -0.12 0.72 -0.42 0.72 -1.04 s-0.54 -1 -1.78 -1.22 c-0.06 -0.02 -1.58 -0.3 -2.14 -0.62 c-0.84 -0.48 -1.28 -1.22 -1.28 -2.14 c0 -0.5 0.16 -0.98 0.44 -1.4 c0.26 -0.36 0.62 -0.64 1.14 -0.88 c0.48 -0.22 1 -0.34 1.58 -0.34 c0.22 0 0.46 0.02 0.68 0.04 c0.88 0.14 1.74 0.52 2.46 1.1 l-1 1.16 c-0.9 -0.7 -1.68 -0.8 -2.06 -0.8 c-0.36 0 -0.7 0.06 -0.98 0.2 c-0.4 0.2 -0.66 0.56 -0.66 0.92 c0 0.6 0.48 0.92 1.7 1.18 c0.02 0 1.66 0.36 2.12 0.62 c0.54 0.28 0.74 0.5 0.96 0.78 z M189.23999999999998 9.36 c-0.64 0 -1.14 -0.52 -1.14 -1.14 s0.5 -1.12 1.14 -1.12 c0.62 0 1.12 0.5 1.12 1.12 s-0.5 1.14 -1.12 1.14 z M188.38 20 l0 -9.16 l1.72 0 l0 9.16 l-1.72 0 z M200.26 11.94 c0.82 0.84 1.28 1.94 1.28 3.14 l0 4.92 l-1.72 0 l0 -4.92 c0 -1.5 -1.2 -2.74 -2.7 -2.74 c-1.48 0 -2.7 1.24 -2.7 2.74 l0 4.92 l-1.72 0 l0 -9.16 l1.72 0 l0 0.88 c0.78 -0.6 1.72 -1.06 2.7 -1.06 c1.18 0 2.3 0.44 3.14 1.28 z M211.72 14.379999999999999 c0.14 0.82 0.12 1.28 0.1 1.46 l-7.06 0 l0 0.04 c0.2 1.52 1.34 2.66 2.66 2.68 c0.82 -0.04 1.66 -0.38 2.24 -0.96 l1.44 0.86 c-0.36 0.4 -0.76 0.74 -1.22 1.02 c-0.7 0.42 -1.56 0.64 -2.42 0.68 c-1.2 0 -2.3 -0.5 -3.1 -1.4 c-0.72 -0.78 -1.16 -1.78 -1.24 -2.88 c-0.02 -0.14 -0.02 -0.28 -0.02 -0.42 c0 -0.36 0.04 -0.72 0.12 -1.08 c0.18 -0.84 0.58 -1.6 1.14 -2.22 c0.8 -0.88 1.92 -1.38 3.1 -1.38 c1.2 0 2.3 0.5 3.12 1.38 c0.56 0.62 0.98 1.38 1.14 2.22 z M204.9 14.4 l5.12 0 l-0.02 -0.04 c-0.4 -1.18 -1.42 -1.98 -2.54 -1.98 c-1.1 0 -2.12 0.8 -2.54 1.98 z M219.6 15.9 c0.28 0.4 0.42 0.88 0.42 1.4 s-0.14 1.02 -0.44 1.44 c-0.28 0.42 -0.68 0.74 -1.22 1 c-0.48 0.22 -1.06 0.34 -1.64 0.34 c-0.32 0 -0.62 -0.04 -0.94 -0.1 c-1 -0.2 -1.94 -0.64 -2.74 -1.32 l1.08 -1.18 c1.06 0.9 1.96 1.08 2.52 1.08 c0.38 0 0.74 -0.08 1.06 -0.22 c0.26 -0.12 0.72 -0.42 0.72 -1.04 s-0.54 -1 -1.78 -1.22 c-0.06 -0.02 -1.58 -0.3 -2.14 -0.62 c-0.84 -0.48 -1.28 -1.22 -1.28 -2.14 c0 -0.5 0.16 -0.98 0.44 -1.4 c0.26 -0.36 0.62 -0.64 1.14 -0.88 c0.48 -0.22 1 -0.34 1.58 -0.34 c0.22 0 0.46 0.02 0.68 0.04 c0.88 0.14 1.74 0.52 2.46 1.1 l-1 1.16 c-0.9 -0.7 -1.68 -0.8 -2.06 -0.8 c-0.36 0 -0.7 0.06 -0.98 0.2 c-0.4 0.2 -0.66 0.56 -0.66 0.92 c0 0.6 0.48 0.92 1.7 1.18 c0.02 0 1.66 0.36 2.12 0.62 c0.54 0.28 0.74 0.5 0.96 0.78 z M227.85999999999999 15.9 c0.28 0.4 0.42 0.88 0.42 1.4 s-0.14 1.02 -0.44 1.44 c-0.28 0.42 -0.68 0.74 -1.22 1 c-0.48 0.22 -1.06 0.34 -1.64 0.34 c-0.32 0 -0.62 -0.04 -0.94 -0.1 c-1 -0.2 -1.94 -0.64 -2.74 -1.32 l1.08 -1.18 c1.06 0.9 1.96 1.08 2.52 1.08 c0.38 0 0.74 -0.08 1.06 -0.22 c0.26 -0.12 0.72 -0.42 0.72 -1.04 s-0.54 -1 -1.78 -1.22 c-0.06 -0.02 -1.58 -0.3 -2.14 -0.62 c-0.84 -0.48 -1.28 -1.22 -1.28 -2.14 c0 -0.5 0.16 -0.98 0.44 -1.4 c0.26 -0.36 0.62 -0.64 1.14 -0.88 c0.48 -0.22 1 -0.34 1.58 -0.34 c0.22 0 0.46 0.02 0.68 0.04 c0.88 0.14 1.74 0.52 2.46 1.1 l-1 1.16 c-0.9 -0.7 -1.68 -0.8 -2.06 -0.8 c-0.36 0 -0.7 0.06 -0.98 0.2 c-0.4 0.2 -0.66 0.56 -0.66 0.92 c0 0.6 0.48 0.92 1.7 1.18 c0.02 0 1.66 0.36 2.12 0.62 c0.54 0.28 0.74 0.5 0.96 0.78 z  M238.29999999999998 20 c-1.68 0 -3.04 -1.34 -3.04 -3.04 l0 -4.48 l-1.36 0 l0 -1.64 l1.36 0 l0 -3.54 l1.72 0 l0 3.54 l2.82 0 l0 1.64 l-2.82 0 l0 4.44 c0 0.74 0.64 1.44 1.36 1.44 l1.54 0 l0.44 1.64 l-2.02 0 z M249.49999999999997 12.02 c0.92 0.92 1.42 2.12 1.42 3.4 s-0.5 2.48 -1.42 3.4 c-0.9 0.9 -2.1 1.4 -3.38 1.4 s-2.48 -0.5 -3.4 -1.4 c-0.9 -0.92 -1.4 -2.12 -1.4 -3.4 s0.5 -2.48 1.4 -3.4 c0.92 -0.9 2.12 -1.38 3.4 -1.38 s2.48 0.48 3.38 1.38 z M246.11999999999998 18.5 c1.7 0 3.08 -1.38 3.08 -3.08 s-1.38 -3.06 -3.08 -3.06 s-3.08 1.36 -3.08 3.06 s1.38 3.08 3.08 3.08 z  M260.96 20 c-1.68 0 -3.04 -1.34 -3.04 -3.04 l0 -4.48 l-1.36 0 l0 -1.64 l1.36 0 l0 -3.54 l1.72 0 l0 3.54 l2.82 0 l0 1.64 l-2.82 0 l0 4.44 c0 0.74 0.64 1.44 1.36 1.44 l1.54 0 l0.44 1.64 l-2.02 0 z M271.8 11.94 c0.82 0.84 1.28 1.94 1.28 3.14 l0 4.92 l-1.72 0 l0 -4.92 c0 -1.5 -1.2 -2.74 -2.7 -2.74 c-1.48 0 -2.7 1.24 -2.7 2.74 l0 4.92 l-1.72 0 l0 -14.68 l1.72 0 l0 6.4 c0.78 -0.6 1.72 -1.06 2.7 -1.06 c1.18 0 2.3 0.44 3.14 1.28 z M283.26 14.379999999999999 c0.14 0.82 0.12 1.28 0.1 1.46 l-7.06 0 l0 0.04 c0.2 1.52 1.34 2.66 2.66 2.68 c0.82 -0.04 1.66 -0.38 2.24 -0.96 l1.44 0.86 c-0.36 0.4 -0.76 0.74 -1.22 1.02 c-0.7 0.42 -1.56 0.64 -2.42 0.68 c-1.2 0 -2.3 -0.5 -3.1 -1.4 c-0.72 -0.78 -1.16 -1.78 -1.24 -2.88 c-0.02 -0.14 -0.02 -0.28 -0.02 -0.42 c0 -0.36 0.04 -0.72 0.12 -1.08 c0.18 -0.84 0.58 -1.6 1.14 -2.22 c0.8 -0.88 1.92 -1.38 3.1 -1.38 c1.2 0 2.3 0.5 3.12 1.38 c0.56 0.62 0.98 1.38 1.14 2.22 z M276.44 14.4 l5.12 0 l-0.02 -0.04 c-0.4 -1.18 -1.42 -1.98 -2.54 -1.98 c-1.1 0 -2.12 0.8 -2.54 1.98 z  M297.18000000000006 11.94 c0.82 0.84 1.28 1.94 1.28 3.14 l0 4.92 l-1.72 0 l0 -4.92 c0 -1.5 -1.2 -2.74 -2.7 -2.74 c-1.48 0 -2.7 1.24 -2.7 2.74 l0 4.92 l-1.72 0 l0 -9.16 l1.72 0 l0 0.88 c0.78 -0.6 1.72 -1.06 2.7 -1.06 c1.18 0 2.3 0.44 3.14 1.28 z M308.64000000000004 14.379999999999999 c0.14 0.82 0.12 1.28 0.1 1.46 l-7.06 0 l0 0.04 c0.2 1.52 1.34 2.66 2.66 2.68 c0.82 -0.04 1.66 -0.38 2.24 -0.96 l1.44 0.86 c-0.36 0.4 -0.76 0.74 -1.22 1.02 c-0.7 0.42 -1.56 0.64 -2.42 0.68 c-1.2 0 -2.3 -0.5 -3.1 -1.4 c-0.72 -0.78 -1.16 -1.78 -1.24 -2.88 c-0.02 -0.14 -0.02 -0.28 -0.02 -0.42 c0 -0.36 0.04 -0.72 0.12 -1.08 c0.18 -0.84 0.58 -1.6 1.14 -2.22 c0.8 -0.88 1.92 -1.38 3.1 -1.38 c1.2 0 2.3 0.5 3.12 1.38 c0.56 0.62 0.98 1.38 1.14 2.22 z M301.82000000000005 14.4 l5.12 0 l-0.02 -0.04 c-0.4 -1.18 -1.42 -1.98 -2.54 -1.98 c-1.1 0 -2.12 0.8 -2.54 1.98 z M319.70000000000005 10.84 l-3.6 4.32 l4.06 4.84 l-2.24 0 l-2.96 -3.5 l-2.94 3.5 l-2.24 0 l4.06 -4.84 l-3.62 -4.32 l2.26 0 l2.48 2.98 l2.5 -2.98 l2.24 0 z M325.3200000000001 20 c-1.68 0 -3.04 -1.34 -3.04 -3.04 l0 -4.48 l-1.36 0 l0 -1.64 l1.36 0 l0 -3.54 l1.72 0 l0 3.54 l2.82 0 l0 1.64 l-2.82 0 l0 4.44 c0 0.74 0.64 1.44 1.36 1.44 l1.54 0 l0.44 1.64 l-2.02 0 z  M335.10000000000014 20 l-1.72 0 l0 -14.68 l1.72 0 l0 14.68 z M345.66000000000014 14.379999999999999 c0.14 0.82 0.12 1.28 0.1 1.46 l-7.06 0 l0 0.04 c0.2 1.52 1.34 2.66 2.66 2.68 c0.82 -0.04 1.66 -0.38 2.24 -0.96 l1.44 0.86 c-0.36 0.4 -0.76 0.74 -1.22 1.02 c-0.7 0.42 -1.56 0.64 -2.42 0.68 c-1.2 0 -2.3 -0.5 -3.1 -1.4 c-0.72 -0.78 -1.16 -1.78 -1.24 -2.88 c-0.02 -0.14 -0.02 -0.28 -0.02 -0.42 c0 -0.36 0.04 -0.72 0.12 -1.08 c0.18 -0.84 0.58 -1.6 1.14 -2.22 c0.8 -0.88 1.92 -1.38 3.1 -1.38 c1.2 0 2.3 0.5 3.12 1.38 c0.56 0.62 0.98 1.38 1.14 2.22 z M338.84000000000015 14.4 l5.12 0 l-0.02 -0.04 c-0.4 -1.18 -1.42 -1.98 -2.54 -1.98 c-1.1 0 -2.12 0.8 -2.54 1.98 z M354.2400000000002 10.84 l1.86 0 l-3.72 9.16 l-1.86 0 l-3.72 -9.16 l1.86 0 l2.8 6.88 z M365.78000000000014 14.379999999999999 c0.14 0.82 0.12 1.28 0.1 1.46 l-7.06 0 l0 0.04 c0.2 1.52 1.34 2.66 2.66 2.68 c0.82 -0.04 1.66 -0.38 2.24 -0.96 l1.44 0.86 c-0.36 0.4 -0.76 0.74 -1.22 1.02 c-0.7 0.42 -1.56 0.64 -2.42 0.68 c-1.2 0 -2.3 -0.5 -3.1 -1.4 c-0.72 -0.78 -1.16 -1.78 -1.24 -2.88 c-0.02 -0.14 -0.02 -0.28 -0.02 -0.42 c0 -0.36 0.04 -0.72 0.12 -1.08 c0.18 -0.84 0.58 -1.6 1.14 -2.22 c0.8 -0.88 1.92 -1.38 3.1 -1.38 c1.2 0 2.3 0.5 3.12 1.38 c0.56 0.62 0.98 1.38 1.14 2.22 z M358.96000000000015 14.4 l5.12 0 l-0.02 -0.04 c-0.4 -1.18 -1.42 -1.98 -2.54 -1.98 c-1.1 0 -2.12 0.8 -2.54 1.98 z M369.32000000000016 20 l-1.72 0 l0 -14.68 l1.72 0 l0 14.68 z M372.44000000000017 17.72 c0.62 0 1.12 0.52 1.12 1.14 s-0.5 1.14 -1.12 1.14 c-0.64 0 -1.14 -0.52 -1.14 -1.14 s0.5 -1.14 1.14 -1.14 z"/></g><g id="SvgjsG1908" rel="mainfill" name="symbol" feature="symbol" xmlns:name="symbol_mainfill" fill="#000" transform="translate(93.82977410819795, 10.163726809951996) scale(1.034722222222222)"><path xmlns="http://www.w3.org/2000/svg" d="M87.8,49.6c-6.9-11.8-19-17.8-27.5-13.9c-0.2-0.7-0.3-1.6,0-2.4c0.2-0.4,0.5-0.7,1-1c1.7-0.3,3.4-0.5,5.1-0.8  c8.3-1.2,16.9-2.5,21-6.2c0.4-0.4,0.4-1,0.1-1.4c-0.4-0.4-1-0.4-1.4-0.1c-2.6,2.3-7.6,3.6-13.1,4.6c-1.6-6.9-6.7-21.2-22.7-23.7  c-0.5-0.1-1,0.1-1.3,0.4c-0.3,0.4-0.5,0.8-0.4,1.3c3.1,13.2,14,20.3,18.7,22.9c-0.5,0.1-0.9,0.1-1.4,0.2c-0.8,0.1-1.6,0.2-2.3,0.4  c-14-12.3-44.6-13.2-53.9-6.7c-0.4,0.3-0.7,0.7-0.8,1.2s0,1,0.3,1.4c6.6,9.4,29.3,10.4,36.4,10.5c-3.5,3.2-5.4,6.9-6.2,8.6  c-0.3-0.1-0.6-0.1-0.8-0.2c-9.7-1.9-19.9,8-22.7,22c-1.3,6.7-0.8,13.5,1.5,18.9c2.4,5.6,6.3,9.2,11.1,10.1c0.8,0.2,1.7,0.2,2.5,0.2  c4,0,8-1.9,11.6-5.4c4.2-4.2,7.2-10.2,8.6-16.9s0.8-13.5-1.5-18.9c-1.9-4.5-4.8-7.7-8.3-9.2c1.2-2.5,5-9.4,12.5-11.7  c1.3-0.4,2.8-0.7,4.4-1c-0.4,1.4-0.2,2.9,0.1,3.8c-3.8,2.6-6.1,7-6.4,12.7c-0.4,5.9,1.3,12.4,4.8,18.3c5.5,9.4,14.3,15.1,21.9,15.1  c2.4,0,4.7-0.6,6.8-1.8c4.2-2.5,6.7-7.1,7.1-13.2C93,62,91.3,55.5,87.8,49.6z M70.5,28.6C70.4,28.6,54.9,22,50.9,6.9  c13.6,2.6,18.4,14.4,20.2,22c-0.1,0-0.1,0-0.2,0C70.8,28.8,70.7,28.7,70.5,28.6z M48,55.6c2.1,5.1,2.6,11.4,1.4,17.7  c-1.3,6.4-4.1,12-8,15.9c-3.8,3.8-8.2,5.4-12.3,4.6c-4.1-0.8-7.5-4-9.6-8.9c-2.1-5.1-2.6-11.4-1.4-17.7  c2.4-11.9,10.3-20.7,18.2-20.7c0.7,0,1.4,0.1,2.1,0.2C42.5,47.5,45.9,50.7,48,55.6z M48.3,34.4c-0.1,0-0.3-0.1-0.4-0.1  c-0.3,0-29.5,0.5-36.8-9.5c8.7-5.9,36.2-5.2,50,5.5c-1.5,0.3-3,0.5-4.4,0.8c-15.5-7.5-34.4-6.6-35.2-6.5c-0.6,0-1,0.5-0.9,1.1  c0,0.6,0.5,1,1.1,0.9c0.2,0,17.4-0.8,32,5.3c-0.1,0-0.2,0-0.2,0.1C51.5,32.6,49.8,33.4,48.3,34.4z M90.6,67.8  c-0.3,5.4-2.5,9.5-6.1,11.6c-7.6,4.5-19.2-1.2-25.9-12.6c-3.3-5.6-4.9-11.7-4.5-17.2c0.3-5.4,2.5-9.5,6.1-11.6  c1.8-1,3.7-1.5,5.8-1.5c6.9,0,15,5.4,20.1,14.1C89.4,56.2,91,62.3,90.6,67.8z"/><path xmlns="http://www.w3.org/2000/svg" d="M35.1,85.9c-1-0.8-2.4-1.3-3.8-1.5c-1.5-0.2-2.9,0-4.1,0.5c-1.3,0.6-2.2,1.5-2.3,2.6c-0.2,1.1,0.4,2.3,1.5,3.2  c1,0.8,2.4,1.3,3.8,1.5c0.4,0.1,0.8,0.1,1.2,0.1c2.7,0,4.9-1.3,5.2-3.2C36.8,87.9,36.3,86.8,35.1,85.9z M30.5,90.1  c-1.1-0.1-2.2-0.6-2.9-1.1c-0.6-0.4-0.8-0.9-0.8-1.3s0.5-0.8,1.1-1.1c0.6-0.2,1.3-0.4,2.1-0.4c0.3,0,0.6,0,1,0.1  c1.1,0.1,2.2,0.6,2.9,1.1c0.6,0.4,0.8,0.9,0.8,1.3C34.6,89.7,32.8,90.4,30.5,90.1z"/><path xmlns="http://www.w3.org/2000/svg" d="M80,69.8c-3,1.5-4.5,4.3-3.4,6.2c0.6,1.1,1.9,1.7,3.4,1.7c1.1,0,2.4-0.3,3.7-1c3-1.5,4.5-4.3,3.4-6.2  c-0.5-1-1.6-1.6-3.1-1.7C82.7,68.7,81.3,69.1,80,69.8z M85.3,71.4c0.4,0.8-0.6,2.5-2.6,3.5c-2,1-4,0.9-4.4,0.1  c-0.4-0.8,0.6-2.5,2.6-3.5c0.9-0.5,1.9-0.8,2.8-0.8c0.1,0,0.1,0,0.2,0C84.6,70.8,85.1,71,85.3,71.4z"/></g>
			</g>
		</svg>
	